<?xml version="1.0" encoding="utf-8"?>
<!-- Generator: Adobe Illustrator 26.5.0, SVG Export Plug-In . SVG Version: 6.00 Build 0)  -->
<svg version="1.1" id="Layer_1" xmlns="http://www.w3.org/2000/svg" xmlns:xlink="http://www.w3.org/1999/xlink" x="0px" y="0px"
	 viewBox="0 0 89.3 31.5" style="enable-background:new 0 0 89.3 31.5;" xml:space="preserve">
<style type="text/css">
	.st0{fill:#231F20;}
	.st1{fill:#00A14B;}
	.st2{fill:#DD524D;}
	.st3{fill:#C05553;}
	.st4{fill:#541D1F;}
	.st5{fill:#FFFFFF;}
	.st6{fill:#E2706D;}
</style>
<path class="st6" d="M83.6,31.5H5.7C2.5,31.5,0,29,0,25.8V5.7C0,2.5,2.5,0,5.7,0h77.9c3.1,0,5.7,2.5,5.7,5.7v20.2
	C89.3,29,86.7,31.5,83.6,31.5z"/>
<path class="st5" d="M37.6,17.4c0,0.6-0.2,1.1-0.5,1.6c-0.3,0.5-0.7,0.8-1.3,1.1s-1.3,0.4-2.1,0.4c-1,0-1.7-0.2-2.4-0.5
	c-0.4-0.3-0.8-0.6-1.1-1c-0.3-0.4-0.4-0.9-0.4-1.3c0-0.2,0.1-0.4,0.2-0.6c0.2-0.2,0.4-0.3,0.6-0.3c0.2,0,0.4,0.1,0.5,0.2
	c0.1,0.1,0.3,0.3,0.4,0.6c0.1,0.3,0.3,0.6,0.4,0.8c0.1,0.2,0.3,0.4,0.6,0.5c0.3,0.1,0.6,0.2,1,0.2c0.6,0,1.1-0.1,1.4-0.4
	c0.4-0.3,0.5-0.6,0.5-1c0-0.3-0.1-0.6-0.3-0.8c-0.2-0.2-0.4-0.4-0.8-0.5c-0.3-0.1-0.7-0.2-1.2-0.3c-0.7-0.2-1.3-0.4-1.7-0.6
	c-0.5-0.2-0.8-0.5-1.1-0.9s-0.4-0.8-0.4-1.4c0-0.5,0.1-1,0.4-1.4s0.7-0.7,1.3-1c0.5-0.2,1.2-0.3,1.9-0.3c0.6,0,1.1,0.1,1.5,0.2
	c0.4,0.1,0.8,0.3,1.1,0.6c0.3,0.2,0.5,0.5,0.6,0.8c0.1,0.3,0.2,0.5,0.2,0.8c0,0.2-0.1,0.4-0.2,0.6c-0.2,0.2-0.4,0.3-0.6,0.3
	c-0.2,0-0.4-0.1-0.5-0.2c-0.1-0.1-0.2-0.3-0.4-0.6c-0.2-0.4-0.4-0.6-0.6-0.9c-0.2-0.2-0.6-0.3-1.2-0.3c-0.5,0-0.9,0.1-1.2,0.3
	c-0.3,0.2-0.5,0.5-0.5,0.8c0,0.2,0.1,0.4,0.2,0.5s0.3,0.3,0.4,0.4c0.2,0.1,0.4,0.2,0.6,0.2c0.2,0.1,0.5,0.1,0.9,0.3
	c0.5,0.1,1,0.3,1.5,0.4c0.4,0.2,0.8,0.3,1.1,0.6c0.3,0.2,0.5,0.5,0.7,0.8C37.5,16.5,37.6,17,37.6,17.4z"/>
<path class="st5" d="M44.1,17.3h-3.5c0,0.4,0.1,0.8,0.2,1.1c0.2,0.3,0.4,0.5,0.6,0.7c0.3,0.2,0.6,0.2,0.9,0.2c0.2,0,0.4,0,0.6-0.1
	c0.2-0.1,0.3-0.1,0.5-0.2s0.3-0.2,0.5-0.3s0.3-0.3,0.5-0.5c0.1-0.1,0.2-0.1,0.4-0.1c0.2,0,0.3,0.1,0.4,0.2s0.2,0.2,0.2,0.4
	c0,0.2-0.1,0.4-0.2,0.6c-0.1,0.2-0.3,0.4-0.6,0.6c-0.3,0.2-0.6,0.4-1,0.5c-0.4,0.1-0.8,0.2-1.3,0.2c-1.2,0-2.1-0.3-2.7-1
	c-0.6-0.7-1-1.6-1-2.7c0-0.5,0.1-1,0.2-1.5c0.2-0.5,0.4-0.8,0.7-1.2c0.3-0.3,0.7-0.6,1.1-0.7c0.4-0.2,0.9-0.3,1.5-0.3
	c0.7,0,1.3,0.1,1.8,0.4c0.5,0.3,0.9,0.7,1.1,1.2c0.3,0.5,0.4,0.9,0.4,1.4c0,0.5-0.1,0.7-0.4,0.9C45,17.2,44.6,17.3,44.1,17.3z
	 M40.6,16.3h3.3c0-0.6-0.2-1.1-0.5-1.4c-0.3-0.3-0.7-0.5-1.1-0.5c-0.4,0-0.8,0.2-1.1,0.5C40.8,15.2,40.7,15.7,40.6,16.3z"/>
<path class="st5" d="M47.2,13.4h0.2v-1.1c0-0.3,0-0.5,0-0.7c0-0.2,0.1-0.3,0.1-0.4c0.1-0.1,0.2-0.2,0.3-0.3c0.1-0.1,0.3-0.1,0.4-0.1
	c0.2,0,0.4,0.1,0.6,0.3c0.1,0.1,0.2,0.3,0.2,0.4c0,0.2,0.1,0.4,0.1,0.7v1.2h0.7c0.3,0,0.4,0.1,0.6,0.2c0.1,0.1,0.2,0.3,0.2,0.5
	c0,0.2-0.1,0.4-0.3,0.5c-0.2,0.1-0.5,0.1-0.8,0.1h-0.3V18c0,0.3,0,0.5,0,0.6c0,0.2,0.1,0.3,0.2,0.4c0.1,0.1,0.2,0.1,0.4,0.1
	c0.1,0,0.2,0,0.4-0.1c0.2,0,0.3-0.1,0.4-0.1c0.1,0,0.3,0.1,0.4,0.2c0.1,0.1,0.2,0.3,0.2,0.4c0,0.3-0.2,0.5-0.5,0.7
	c-0.3,0.2-0.8,0.2-1.4,0.2c-0.6,0-1-0.1-1.3-0.3s-0.5-0.5-0.6-0.8c-0.1-0.3-0.1-0.8-0.1-1.3v-3.5h-0.2c-0.3,0-0.5-0.1-0.6-0.2
	s-0.2-0.3-0.2-0.5c0-0.2,0.1-0.3,0.2-0.5C46.8,13.4,47,13.4,47.2,13.4z"/>
<path class="st5" d="M52,13.4h0.2v-1.1c0-0.3,0-0.5,0-0.7c0-0.2,0.1-0.3,0.1-0.4c0.1-0.1,0.2-0.2,0.3-0.3c0.1-0.1,0.3-0.1,0.4-0.1
	c0.2,0,0.4,0.1,0.6,0.3c0.1,0.1,0.2,0.3,0.2,0.4c0,0.2,0.1,0.4,0.1,0.7v1.2h0.7c0.3,0,0.4,0.1,0.6,0.2c0.1,0.1,0.2,0.3,0.2,0.5
	c0,0.2-0.1,0.4-0.3,0.5c-0.2,0.1-0.5,0.1-0.8,0.1H54V18c0,0.3,0,0.5,0,0.6c0,0.2,0.1,0.3,0.2,0.4c0.1,0.1,0.2,0.1,0.4,0.1
	c0.1,0,0.2,0,0.4-0.1c0.2,0,0.3-0.1,0.4-0.1c0.1,0,0.3,0.1,0.4,0.2c0.1,0.1,0.2,0.3,0.2,0.4c0,0.3-0.2,0.5-0.5,0.7
	c-0.3,0.2-0.8,0.2-1.4,0.2c-0.6,0-1-0.1-1.3-0.3s-0.5-0.5-0.6-0.8c-0.1-0.3-0.1-0.8-0.1-1.3v-3.5H52c-0.3,0-0.5-0.1-0.6-0.2
	s-0.2-0.3-0.2-0.5c0-0.2,0.1-0.3,0.2-0.5C51.5,13.4,51.7,13.4,52,13.4z"/>
<path class="st5" d="M57.6,12.4c-0.3,0-0.5-0.1-0.6-0.2c-0.2-0.2-0.3-0.4-0.3-0.7c0-0.3,0.1-0.5,0.3-0.6c0.2-0.2,0.4-0.2,0.6-0.2
	c0.2,0,0.4,0.1,0.6,0.2s0.3,0.4,0.3,0.7c0,0.3-0.1,0.5-0.3,0.6C58.1,12.3,57.8,12.4,57.6,12.4z M58.5,14.2v5.2
	c0,0.4-0.1,0.6-0.3,0.8s-0.4,0.3-0.7,0.3s-0.5-0.1-0.6-0.3c-0.2-0.2-0.2-0.5-0.2-0.8v-5.2c0-0.4,0.1-0.6,0.2-0.8
	c0.2-0.2,0.4-0.3,0.6-0.3s0.5,0.1,0.7,0.3C58.4,13.6,58.5,13.9,58.5,14.2z"/>
<path class="st5" d="M62,14.2v0.2c0.3-0.4,0.7-0.7,1-0.9c0.4-0.2,0.8-0.3,1.3-0.3c0.5,0,0.9,0.1,1.3,0.3c0.4,0.2,0.7,0.5,0.8,0.9
	c0.1,0.2,0.2,0.5,0.2,0.7c0,0.3,0.1,0.6,0.1,1v3.4c0,0.4-0.1,0.6-0.2,0.8c-0.2,0.2-0.4,0.3-0.6,0.3c-0.3,0-0.5-0.1-0.7-0.3
	c-0.2-0.2-0.3-0.5-0.3-0.8v-3c0-0.6-0.1-1-0.2-1.4c-0.2-0.3-0.5-0.5-1-0.5c-0.3,0-0.6,0.1-0.9,0.3c-0.3,0.2-0.5,0.5-0.6,0.8
	c-0.1,0.3-0.1,0.8-0.1,1.5v2.3c0,0.4-0.1,0.6-0.3,0.8c-0.2,0.2-0.4,0.3-0.7,0.3c-0.3,0-0.5-0.1-0.6-0.3s-0.3-0.5-0.3-0.8v-5.2
	c0-0.3,0.1-0.6,0.2-0.8c0.1-0.2,0.4-0.3,0.6-0.3c0.2,0,0.3,0,0.4,0.1c0.1,0.1,0.2,0.2,0.3,0.3S62,14,62,14.2z"/>
<path class="st5" d="M75.1,14.5v5.2c0,0.6-0.1,1.1-0.2,1.5c-0.1,0.4-0.3,0.8-0.6,1.1s-0.6,0.5-1.1,0.6c-0.5,0.1-1,0.2-1.7,0.2
	c-0.6,0-1.2-0.1-1.7-0.3c-0.5-0.2-0.9-0.4-1.1-0.7s-0.4-0.6-0.4-0.8c0-0.2,0.1-0.4,0.2-0.5c0.1-0.1,0.3-0.2,0.5-0.2
	c0.3,0,0.5,0.1,0.7,0.3c0.1,0.1,0.2,0.2,0.3,0.4s0.2,0.2,0.3,0.3c0.1,0.1,0.3,0.1,0.5,0.2s0.4,0.1,0.6,0.1c0.5,0,0.8-0.1,1.1-0.2
	c0.3-0.1,0.4-0.3,0.5-0.5c0.1-0.2,0.2-0.5,0.2-0.7c0-0.3,0-0.7,0-1.3c-0.3,0.4-0.6,0.7-1,0.9c-0.4,0.2-0.8,0.3-1.3,0.3
	c-0.6,0-1.1-0.2-1.6-0.5c-0.5-0.3-0.8-0.7-1-1.3c-0.2-0.6-0.4-1.2-0.4-1.9c0-0.5,0.1-1,0.2-1.5c0.1-0.4,0.4-0.8,0.6-1.1
	s0.6-0.5,0.9-0.7c0.4-0.2,0.7-0.2,1.2-0.2c0.5,0,1,0.1,1.3,0.3c0.4,0.2,0.7,0.5,1,0.9v-0.2c0-0.3,0.1-0.6,0.2-0.7
	c0.2-0.2,0.4-0.3,0.6-0.3c0.3,0,0.6,0.1,0.7,0.3C75.1,13.8,75.1,14.1,75.1,14.5z M69.9,16.8c0,0.7,0.2,1.3,0.5,1.7
	c0.3,0.4,0.7,0.6,1.2,0.6c0.3,0,0.6-0.1,0.8-0.2c0.3-0.2,0.5-0.4,0.6-0.7s0.3-0.7,0.3-1.2c0-0.7-0.2-1.3-0.5-1.7
	c-0.3-0.4-0.7-0.6-1.3-0.6c-0.5,0-0.9,0.2-1.2,0.6C70.1,15.5,69.9,16.1,69.9,16.8z"/>
<path class="st5" d="M25.9,16.6c0.1-0.4,0.2-0.8,0.2-1.3c0-0.4-0.1-0.8-0.2-1.2l0.8-0.8c0.3-0.3,0.3-0.7,0.1-1.1l-0.4-0.7
	c-0.2-0.3-0.6-0.5-1-0.4l-1.1,0.3c-0.6-0.6-1.4-1-2.2-1.3L21.8,9c-0.1-0.4-0.5-0.7-0.9-0.7h-0.8c-0.4,0-0.8,0.3-0.9,0.7L19,10.1
	c-0.8,0.2-1.6,0.7-2.2,1.3L15.7,11c-0.4-0.1-0.8,0.1-1,0.4l-0.4,0.7c-0.2,0.3-0.2,0.8,0.1,1.1l0.8,0.8C15,14.5,15,14.9,15,15.3
	c0,0.4,0.1,0.8,0.2,1.2l-0.8,0.8c-0.3,0.3-0.3,0.7-0.1,1.1l0.4,0.7c0.2,0.3,0.6,0.5,1,0.4l1.1-0.3c0.6,0.6,1.4,1,2.2,1.3l0.3,1.1
	c0.1,0.4,0.5,0.7,0.9,0.7h0.8c0.4,0,0.8-0.3,0.9-0.7l0.3-1.1c0.8-0.2,1.6-0.7,2.2-1.3l1.1,0.3c0.4,0.1,0.8-0.1,1-0.4l0.4-0.7
	c0.2-0.3,0.1-0.8-0.1-1.1L25.9,16.6z M20.5,18c-1.5,0-2.7-1.2-2.7-2.7c0-1.5,1.2-2.7,2.7-2.7c1.5,0,2.7,1.2,2.7,2.7
	C23.2,16.8,22,18,20.5,18z"/>
</svg>
