<?xml version="1.0" encoding="utf-8"?>
<!-- Generator: Adobe Illustrator 26.5.0, SVG Export Plug-In . SVG Version: 6.00 Build 0)  -->
<svg version="1.1" id="Layer_1" xmlns="http://www.w3.org/2000/svg" xmlns:xlink="http://www.w3.org/1999/xlink" x="0px" y="0px"
	 viewBox="0 0 319.7 40.7" style="enable-background:new 0 0 319.7 40.7;" xml:space="preserve">
<style type="text/css">
	.st0{fill:#231F20;}
	.st1{fill:#00A14B;}
	.st2{fill:#DD524D;}
	.st3{fill:#C05553;}
	.st4{fill:#541D1F;}
	.st5{fill:#FFFFFF;}
	.st6{fill:#E2706D;}
</style>
<path class="st5" d="M67.3,26h-6.7v10.3c0,1.5-0.3,2.6-1,3.3c-0.7,0.8-1.6,1.1-2.6,1.1c-1.1,0-2-0.4-2.7-1.1s-1-1.9-1-3.3V8.4
	c0-1.6,0.4-2.8,1.1-3.5s1.9-1,3.5-1h9.4c2.8,0,4.9,0.2,6.4,0.6c1.5,0.4,2.8,1.1,3.8,2.1c1.1,1,1.9,2.1,2.5,3.5
	c0.6,1.4,0.8,2.9,0.8,4.7c0,3.7-1.1,6.5-3.4,8.4C75.2,25.1,71.8,26,67.3,26z M65.5,9.4h-4.9v11.1h4.9c1.7,0,3.2-0.2,4.3-0.5
	c1.2-0.4,2-1,2.7-1.8c0.6-0.8,0.9-1.9,0.9-3.2c0-1.6-0.5-2.9-1.4-3.9C71,9.9,68.8,9.4,65.5,9.4z"/>
<path class="st5" d="M109.9,27c0,2-0.3,3.9-0.9,5.6s-1.5,3.2-2.7,4.4s-2.6,2.2-4.3,2.8s-3.5,1-5.6,1c-2,0-3.9-0.3-5.5-1
	c-1.6-0.7-3-1.6-4.2-2.8c-1.2-1.2-2.1-2.7-2.7-4.4C83.3,30.9,83,29.1,83,27c0-2,0.3-3.9,0.9-5.6c0.6-1.7,1.5-3.1,2.7-4.4
	c1.2-1.2,2.6-2.1,4.3-2.8c1.7-0.7,3.5-1,5.5-1c2,0,3.9,0.3,5.6,1c1.7,0.7,3.1,1.6,4.3,2.8s2.1,2.7,2.7,4.4
	C109.6,23.1,109.9,25,109.9,27z M103.1,27c0-2.8-0.6-4.9-1.8-6.4c-1.2-1.5-2.8-2.3-4.9-2.3c-1.3,0-2.5,0.3-3.5,1
	c-1,0.7-1.8,1.7-2.3,3c-0.5,1.3-0.8,2.9-0.8,4.7c0,1.8,0.3,3.3,0.8,4.6c0.5,1.3,1.3,2.3,2.3,3c1,0.7,2.2,1.1,3.5,1.1
	c2,0,3.7-0.8,4.9-2.3C102.5,31.9,103.1,29.7,103.1,27z"/>
<path class="st5" d="M137.6,27.5v9c0,1.4-0.3,2.5-1,3.2c-0.6,0.7-1.5,1.1-2.5,1.1c-1,0-1.9-0.4-2.5-1.1c-0.6-0.7-1-1.8-1-3.2V25.7
	c0-1.7-0.1-3-0.2-4c-0.1-0.9-0.4-1.7-0.9-2.3c-0.5-0.6-1.3-0.9-2.4-0.9c-2.2,0-3.7,0.8-4.4,2.3c-0.7,1.5-1.1,3.7-1.1,6.5v9.1
	c0,1.4-0.3,2.5-1,3.2c-0.6,0.7-1.5,1.1-2.5,1.1c-1,0-1.9-0.4-2.5-1.1c-0.7-0.7-1-1.8-1-3.2V17.2c0-1.3,0.3-2.2,0.9-2.9
	c0.6-0.7,1.4-1,2.3-1c0.9,0,1.7,0.3,2.3,0.9c0.6,0.6,0.9,1.5,0.9,2.6v0.6c1.2-1.4,2.4-2.4,3.8-3.1c1.3-0.7,2.8-1,4.4-1
	c1.7,0,3.2,0.3,4.4,1c1.2,0.7,2.2,1.7,3,3.1c1.1-1.4,2.4-2.4,3.7-3.1c1.3-0.7,2.7-1,4.3-1c1.8,0,3.4,0.4,4.8,1.1
	c1.3,0.7,2.3,1.8,3,3.1c0.6,1.2,0.9,3.1,0.9,5.8v13.2c0,1.4-0.3,2.5-1,3.2c-0.6,0.7-1.5,1.1-2.5,1.1c-1,0-1.9-0.4-2.5-1.1
	c-0.7-0.7-1-1.8-1-3.2V25.1c0-1.4-0.1-2.6-0.2-3.5c-0.1-0.9-0.5-1.6-1-2.2c-0.5-0.6-1.4-0.9-2.5-0.9c-0.9,0-1.7,0.3-2.5,0.8
	c-0.8,0.5-1.4,1.2-1.9,2.1C137.9,22.6,137.6,24.6,137.6,27.5z"/>
<path class="st5" d="M185.3,27c0,2-0.3,3.9-0.9,5.6c-0.6,1.7-1.5,3.2-2.7,4.4s-2.6,2.2-4.3,2.8c-1.6,0.7-3.5,1-5.6,1
	c-2,0-3.9-0.3-5.5-1c-1.6-0.7-3-1.6-4.2-2.8c-1.2-1.2-2.1-2.7-2.7-4.4c-0.6-1.7-0.9-3.5-0.9-5.5c0-2,0.3-3.9,0.9-5.6
	c0.6-1.7,1.5-3.1,2.7-4.4c1.2-1.2,2.6-2.1,4.3-2.8c1.7-0.7,3.5-1,5.5-1c2,0,3.9,0.3,5.6,1c1.7,0.7,3.1,1.6,4.3,2.8s2.1,2.7,2.7,4.4
	C184.9,23.1,185.3,25,185.3,27z M178.5,27c0-2.8-0.6-4.9-1.8-6.4c-1.2-1.5-2.8-2.3-4.9-2.3c-1.3,0-2.5,0.3-3.5,1s-1.8,1.7-2.3,3
	c-0.5,1.3-0.8,2.9-0.8,4.7c0,1.8,0.3,3.3,0.8,4.6c0.5,1.3,1.3,2.3,2.3,3c1,0.7,2.2,1.1,3.5,1.1c2,0,3.7-0.8,4.9-2.3
	C177.9,31.9,178.5,29.7,178.5,27z"/>
<path class="st5" d="M190,13.9h1.6v-2c0-2.1,0.3-3.8,0.8-5c0.5-1.2,1.4-2.2,2.7-2.7c1.3-0.6,3-0.9,5.3-0.9c3.9,0,5.9,1,5.9,2.9
	c0,0.6-0.2,1.2-0.6,1.6s-0.9,0.7-1.5,0.7c-0.3,0-0.7,0-1.4-0.1c-0.6-0.1-1.2-0.1-1.6-0.1c-1.2,0-2,0.4-2.3,1.1
	c-0.3,0.7-0.5,1.7-0.5,3.1v1.6h1.7c2.6,0,3.9,0.8,3.9,2.3c0,1.1-0.3,1.8-1,2.1c-0.7,0.3-1.6,0.4-2.8,0.4h-1.7v17.9
	c0,1.3-0.3,2.4-0.9,3.1c-0.6,0.7-1.5,1.1-2.5,1.1c-1,0-1.8-0.3-2.4-1.1c-0.6-0.7-1-1.7-1-3.1V18.8h-1.9c-1,0-1.8-0.2-2.3-0.7
	c-0.5-0.5-0.8-1-0.8-1.8C186.6,14.7,187.8,13.9,190,13.9z"/>
<path class="st5" d="M232,27c0,2-0.3,3.9-0.9,5.6c-0.6,1.7-1.5,3.2-2.7,4.4s-2.6,2.2-4.3,2.8s-3.5,1-5.6,1c-2,0-3.9-0.3-5.5-1
	c-1.6-0.7-3-1.6-4.2-2.8c-1.2-1.2-2.1-2.7-2.7-4.4c-0.6-1.7-0.9-3.5-0.9-5.5c0-2,0.3-3.9,0.9-5.6c0.6-1.7,1.5-3.1,2.7-4.4
	c1.2-1.2,2.6-2.1,4.3-2.8c1.7-0.7,3.5-1,5.5-1c2,0,3.9,0.3,5.6,1c1.7,0.7,3.1,1.6,4.3,2.8s2.1,2.7,2.7,4.4C231.7,23.1,232,25,232,27
	z M225.2,27c0-2.8-0.6-4.9-1.8-6.4c-1.2-1.5-2.8-2.3-4.9-2.3c-1.3,0-2.5,0.3-3.5,1s-1.8,1.7-2.3,3c-0.5,1.3-0.8,2.9-0.8,4.7
	c0,1.8,0.3,3.3,0.8,4.6c0.5,1.3,1.3,2.3,2.3,3c1,0.7,2.2,1.1,3.5,1.1c2,0,3.7-0.8,4.9-2.3C224.6,31.9,225.2,29.7,225.2,27z"/>
<path class="st5" d="M261.5,32.4c0,0.8-0.3,1.7-0.8,2.7c-0.5,1-1.3,1.9-2.3,2.7c-1,0.9-2.3,1.6-3.9,2.1c-1.6,0.5-3.3,0.8-5.3,0.8
	c-4.2,0-7.4-1.2-9.8-3.6c-2.3-2.4-3.5-5.7-3.5-9.8c0-2.8,0.5-5.2,1.6-7.3c1.1-2.1,2.6-3.8,4.6-4.9c2-1.2,4.4-1.7,7.3-1.7
	c1.7,0,3.4,0.3,4.8,0.8c1.5,0.5,2.7,1.2,3.7,2c1,0.8,1.8,1.7,2.3,2.6c0.5,0.9,0.8,1.8,0.8,2.6c0,0.8-0.3,1.5-0.9,2.1
	c-0.6,0.6-1.3,0.8-2.2,0.8c-0.6,0-1-0.1-1.4-0.4c-0.4-0.3-0.8-0.8-1.2-1.4c-0.8-1.3-1.7-2.2-2.6-2.8c-0.9-0.6-2-0.9-3.4-0.9
	c-2,0-3.6,0.8-4.8,2.3c-1.2,1.6-1.8,3.7-1.8,6.4c0,1.3,0.2,2.4,0.5,3.5c0.3,1.1,0.8,2,1.4,2.7c0.6,0.8,1.3,1.3,2.2,1.7
	c0.8,0.4,1.8,0.6,2.8,0.6c1.4,0,2.5-0.3,3.5-0.9c1-0.6,1.8-1.6,2.6-2.9c0.4-0.8,0.9-1.4,1.3-1.8c0.5-0.4,1.1-0.6,1.8-0.6
	c0.8,0,1.5,0.3,2.1,0.9C261.3,31,261.5,31.7,261.5,32.4z"/>
<path class="st5" d="M284.9,36.9v-0.9c-0.8,1-1.7,1.9-2.5,2.6c-0.9,0.7-1.9,1.2-2.9,1.5c-1.1,0.3-2.3,0.5-3.6,0.5
	c-1.6,0-3.1-0.3-4.4-1c-1.3-0.7-2.3-1.6-3-2.8c-0.8-1.4-1.3-3.5-1.3-6.2V17.3c0-1.4,0.3-2.4,0.9-3c0.6-0.7,1.4-1,2.4-1
	c1,0,1.8,0.3,2.5,1s0.9,1.7,0.9,3v10.8c0,1.6,0.1,2.9,0.4,3.9s0.7,1.9,1.4,2.5c0.7,0.6,1.6,0.9,2.8,0.9c1.1,0,2.2-0.3,3.2-1
	s1.7-1.6,2.2-2.6c0.4-1,0.6-3,0.6-6.3v-8.2c0-1.3,0.3-2.3,0.9-3c0.6-0.7,1.4-1,2.4-1s1.8,0.3,2.4,1c0.6,0.7,0.9,1.7,0.9,3v19.6
	c0,1.3-0.3,2.2-0.9,2.9c-0.6,0.6-1.3,1-2.3,1s-1.7-0.3-2.3-1C285.2,39.1,284.9,38.1,284.9,36.9z"/>
<path class="st5" d="M319.7,31.9c0,1.9-0.5,3.5-1.4,4.8c-0.9,1.3-2.2,2.3-4,3c-1.8,0.7-3.9,1-6.5,1c-2.4,0-4.5-0.4-6.2-1.1
	s-3-1.7-3.8-2.8c-0.8-1.1-1.2-2.2-1.2-3.3c0-0.7,0.3-1.4,0.8-1.9s1.2-0.8,2-0.8c0.7,0,1.3,0.2,1.6,0.5c0.4,0.3,0.7,0.8,1.1,1.5
	c0.7,1.2,1.5,2.1,2.5,2.7c1,0.6,2.3,0.9,3.9,0.9c1.4,0,2.5-0.3,3.3-0.9c0.9-0.6,1.3-1.3,1.3-2.1c0-1.2-0.4-2.1-1.3-2.6
	c-0.9-0.5-2.4-1.1-4.4-1.6c-2.3-0.6-4.2-1.2-5.7-1.8c-1.5-0.6-2.6-1.5-3.5-2.5c-0.9-1-1.3-2.3-1.3-3.8c0-1.4,0.4-2.6,1.2-3.8
	c0.8-1.2,2-2.2,3.6-2.9c1.6-0.7,3.5-1.1,5.7-1.1c1.7,0,3.3,0.2,4.7,0.5c1.4,0.4,2.6,0.8,3.5,1.5c0.9,0.6,1.6,1.3,2.1,2
	c0.5,0.7,0.7,1.5,0.7,2.2c0,0.8-0.3,1.4-0.8,1.9c-0.5,0.5-1.3,0.7-2.2,0.7c-0.7,0-1.3-0.2-1.8-0.6c-0.5-0.4-1-1-1.7-1.8
	c-0.5-0.7-1.1-1.2-1.8-1.6c-0.7-0.4-1.6-0.6-2.8-0.6c-1.2,0-2.2,0.3-3,0.8c-0.8,0.5-1.2,1.2-1.2,1.9c0,0.7,0.3,1.3,0.9,1.7
	c0.6,0.5,1.4,0.8,2.4,1.1s2.4,0.7,4.2,1.1c2.1,0.5,3.8,1.1,5.1,1.8c1.3,0.7,2.3,1.5,3,2.5C319.4,29.6,319.7,30.7,319.7,31.9z"/>
<path class="st5" d="M20.4,0C9.1,0,0,9.1,0,20.4c0,11.3,9.1,20.4,20.4,20.4c11.3,0,20.4-9.1,20.4-20.4C40.7,9.1,31.6,0,20.4,0z
	 M33.7,13.3L20,31.6c0,0,0,0,0,0.1c-0.1,0.1-0.2,0.2-0.3,0.2l-0.3-0.3l0.2,0.4c0,0-0.1,0.1-0.2,0.1c-0.3,0.1-0.6,0.2-0.9,0.2
	c-0.4,0-0.8-0.1-1.1-0.4c-0.1,0-0.1,0-0.2-0.1l-0.1-0.1c0,0,0,0-0.1-0.1l-9.1-9.1c-0.9-0.9-0.9-2.3,0-3.2c0.9-0.9,2.3-0.9,3.2,0
	l7.2,7.2l12-16c0.7-1,2.2-1.2,3.2-0.5C34.2,10.9,34.4,12.3,33.7,13.3z"/>
</svg>
