<?xml version="1.0" encoding="utf-8"?>
<!-- Generator: Adobe Illustrator 26.5.0, SVG Export Plug-In . SVG Version: 6.00 Build 0)  -->
<svg version="1.1" id="Layer_1" xmlns="http://www.w3.org/2000/svg" xmlns:xlink="http://www.w3.org/1999/xlink" x="0px" y="0px"
	 viewBox="0 0 89.3 31.5" style="enable-background:new 0 0 89.3 31.5;" xml:space="preserve">
<style type="text/css">
	.st0{fill:#231F20;}
	.st1{fill:#00A14B;}
	.st2{fill:#DD524D;}
	.st3{fill:#C05553;}
	.st4{fill:#541D1F;}
	.st5{fill:#FFFFFF;}
	.st6{fill:#E2706D;}
</style>
<path class="st6" d="M83.6,31.5H5.7C2.5,31.5,0,29,0,25.8V5.7C0,2.5,2.5,0,5.7,0h77.9c3.1,0,5.7,2.5,5.7,5.7v20.2
	C89.3,29,86.7,31.5,83.6,31.5z"/>
<path class="st5" d="M35,15.1h-0.7v3.1c0,0.4-0.1,0.7-0.3,0.9c-0.2,0.2-0.4,0.3-0.7,0.3c-0.3,0-0.6-0.1-0.7-0.3
	c-0.2-0.2-0.3-0.5-0.3-0.9v-7.4c0-0.4,0.1-0.7,0.3-0.9c0.2-0.2,0.5-0.3,0.9-0.3h3.2c0.4,0,0.8,0,1.1,0.1c0.3,0,0.6,0.1,0.8,0.2
	c0.3,0.1,0.6,0.3,0.8,0.5c0.2,0.2,0.4,0.5,0.5,0.8c0.1,0.3,0.2,0.6,0.2,1c0,0.7-0.2,1.3-0.6,1.7c-0.4,0.4-1,0.7-1.8,0.9
	c0.3,0.2,0.7,0.5,1,0.8c0.3,0.4,0.6,0.7,0.8,1.2c0.2,0.4,0.4,0.8,0.6,1.1c0.1,0.3,0.2,0.6,0.2,0.7c0,0.1,0,0.3-0.1,0.4
	c-0.1,0.1-0.2,0.2-0.3,0.3c-0.1,0.1-0.3,0.1-0.5,0.1c-0.2,0-0.4-0.1-0.6-0.2s-0.3-0.2-0.4-0.4c-0.1-0.2-0.3-0.4-0.4-0.7l-0.8-1.3
	c-0.3-0.5-0.5-0.8-0.8-1.1c-0.2-0.3-0.4-0.4-0.7-0.5C35.6,15.2,35.3,15.1,35,15.1z M36.1,11.1h-1.8v2.7h1.8c0.5,0,0.9,0,1.2-0.1
	s0.6-0.2,0.7-0.4c0.2-0.2,0.3-0.5,0.3-0.8c0-0.3-0.1-0.5-0.2-0.7s-0.3-0.4-0.6-0.5C37.2,11.1,36.8,11.1,36.1,11.1z"/>
<path class="st5" d="M46.6,16.2h-3.5c0,0.4,0.1,0.8,0.2,1.1c0.2,0.3,0.4,0.5,0.6,0.7c0.3,0.2,0.6,0.2,0.9,0.2c0.2,0,0.4,0,0.6-0.1
	c0.2-0.1,0.3-0.1,0.5-0.2c0.2-0.1,0.3-0.2,0.5-0.3c0.1-0.1,0.3-0.3,0.5-0.5c0.1-0.1,0.2-0.1,0.4-0.1c0.2,0,0.3,0.1,0.4,0.2
	c0.1,0.1,0.2,0.2,0.2,0.4c0,0.2-0.1,0.4-0.2,0.6c-0.1,0.2-0.3,0.4-0.6,0.6c-0.3,0.2-0.6,0.4-1,0.5c-0.4,0.1-0.8,0.2-1.3,0.2
	c-1.2,0-2.1-0.3-2.7-1c-0.6-0.7-1-1.6-1-2.7c0-0.5,0.1-1,0.2-1.5s0.4-0.8,0.7-1.2c0.3-0.3,0.7-0.6,1.1-0.7s0.9-0.3,1.5-0.3
	c0.7,0,1.3,0.1,1.8,0.4c0.5,0.3,0.9,0.7,1.1,1.2c0.3,0.5,0.4,0.9,0.4,1.4c0,0.5-0.1,0.7-0.4,0.9C47.5,16.2,47.1,16.2,46.6,16.2z
	 M43.1,15.2h3.3c0-0.6-0.2-1.1-0.5-1.4c-0.3-0.3-0.7-0.5-1.1-0.5c-0.4,0-0.8,0.2-1.1,0.5C43.4,14.1,43.2,14.6,43.1,15.2z"/>
<path class="st5" d="M51.1,13.1v0.2c0.3-0.4,0.7-0.7,1.1-0.9c0.4-0.2,0.8-0.3,1.2-0.3c0.6,0,1.1,0.1,1.5,0.4
	c0.5,0.3,0.8,0.7,1.1,1.3c0.3,0.5,0.4,1.2,0.4,2c0,0.6-0.1,1.1-0.2,1.5c-0.2,0.5-0.4,0.9-0.6,1.2c-0.3,0.3-0.6,0.6-1,0.7
	c-0.4,0.2-0.8,0.3-1.2,0.3c-0.5,0-0.9-0.1-1.3-0.3c-0.4-0.2-0.7-0.5-1-0.9v2.7c0,0.8-0.3,1.2-0.9,1.2c-0.3,0-0.6-0.1-0.7-0.3
	c-0.1-0.2-0.2-0.5-0.2-0.9v-7.8c0-0.3,0.1-0.6,0.2-0.8c0.1-0.2,0.4-0.3,0.6-0.3c0.3,0,0.5,0.1,0.6,0.3C51,12.6,51.1,12.8,51.1,13.1z
	 M54.7,15.8c0-0.5-0.1-0.9-0.2-1.2c-0.1-0.3-0.3-0.6-0.6-0.8c-0.3-0.2-0.5-0.3-0.9-0.3c-0.5,0-0.9,0.2-1.3,0.6
	c-0.3,0.4-0.5,1-0.5,1.7c0,0.7,0.2,1.3,0.5,1.7s0.8,0.6,1.3,0.6c0.3,0,0.6-0.1,0.8-0.3c0.3-0.2,0.5-0.4,0.6-0.8
	C54.6,16.7,54.7,16.2,54.7,15.8z"/>
<path class="st5" d="M64.6,15.8c0,0.5-0.1,1-0.3,1.5c-0.2,0.5-0.4,0.8-0.7,1.2c-0.3,0.3-0.7,0.6-1.1,0.7c-0.4,0.2-0.9,0.3-1.5,0.3
	c-0.5,0-1-0.1-1.5-0.3c-0.4-0.2-0.8-0.4-1.1-0.8c-0.3-0.3-0.6-0.7-0.7-1.2c-0.2-0.4-0.2-0.9-0.2-1.5c0-0.5,0.1-1,0.3-1.5
	c0.2-0.5,0.4-0.8,0.7-1.2c0.3-0.3,0.7-0.6,1.1-0.7s0.9-0.3,1.5-0.3c0.5,0,1,0.1,1.5,0.3c0.4,0.2,0.8,0.4,1.1,0.8
	c0.3,0.3,0.6,0.7,0.7,1.2C64.6,14.7,64.6,15.2,64.6,15.8z M62.8,15.8c0-0.7-0.2-1.3-0.5-1.7c-0.3-0.4-0.8-0.6-1.3-0.6
	c-0.4,0-0.7,0.1-0.9,0.3c-0.3,0.2-0.5,0.5-0.6,0.8c-0.1,0.4-0.2,0.8-0.2,1.2c0,0.5,0.1,0.9,0.2,1.2c0.1,0.4,0.3,0.6,0.6,0.8
	s0.6,0.3,0.9,0.3c0.5,0,1-0.2,1.3-0.6C62.7,17.1,62.8,16.5,62.8,15.8z"/>
<path class="st5" d="M67.9,16.8v1.5c0,0.4-0.1,0.6-0.3,0.8c-0.2,0.2-0.4,0.3-0.7,0.3c-0.3,0-0.5-0.1-0.6-0.3
	c-0.2-0.2-0.3-0.5-0.3-0.8v-5c0-0.8,0.3-1.2,0.9-1.2c0.3,0,0.5,0.1,0.6,0.3c0.1,0.2,0.2,0.5,0.2,0.8c0.2-0.4,0.4-0.6,0.7-0.8
	c0.2-0.2,0.5-0.3,0.9-0.3s0.7,0.1,1.1,0.3c0.4,0.2,0.5,0.4,0.5,0.8c0,0.2-0.1,0.4-0.2,0.5c-0.2,0.1-0.3,0.2-0.5,0.2
	c-0.1,0-0.2,0-0.5-0.1c-0.3-0.1-0.5-0.1-0.7-0.1c-0.3,0-0.5,0.1-0.6,0.2c-0.2,0.1-0.3,0.3-0.4,0.6s-0.2,0.6-0.2,1
	S67.9,16.3,67.9,16.8z"/>
<path class="st5" d="M72.2,12.3h0.2v-1.1c0-0.3,0-0.5,0-0.7c0-0.2,0.1-0.3,0.1-0.4c0.1-0.1,0.2-0.2,0.3-0.3s0.3-0.1,0.4-0.1
	c0.2,0,0.4,0.1,0.6,0.3c0.1,0.1,0.2,0.3,0.2,0.4c0,0.2,0.1,0.4,0.1,0.7v1.2h0.7c0.3,0,0.4,0.1,0.6,0.2c0.1,0.1,0.2,0.3,0.2,0.5
	c0,0.2-0.1,0.4-0.3,0.5c-0.2,0.1-0.5,0.1-0.8,0.1h-0.3v3.3c0,0.3,0,0.5,0,0.6c0,0.2,0.1,0.3,0.2,0.4c0.1,0.1,0.2,0.1,0.4,0.1
	c0.1,0,0.2,0,0.4-0.1c0.2,0,0.3-0.1,0.4-0.1c0.1,0,0.3,0.1,0.4,0.2c0.1,0.1,0.2,0.3,0.2,0.4c0,0.3-0.2,0.5-0.5,0.7
	c-0.3,0.2-0.8,0.2-1.4,0.2c-0.6,0-1-0.1-1.3-0.3c-0.3-0.2-0.5-0.5-0.6-0.8c-0.1-0.3-0.1-0.8-0.1-1.3v-3.5h-0.2
	c-0.3,0-0.5-0.1-0.6-0.2c-0.1-0.1-0.2-0.3-0.2-0.5c0-0.2,0.1-0.3,0.2-0.5C71.8,12.3,72,12.3,72.2,12.3z"/>
<path class="st5" d="M13,9.4v10.3h15.7V9.4H13z M28,19h-0.7v-7.8h-2.3V19h-1.2v-5h-2.3v5h-1.2v-6.7H18V19h-1.2v-2.8h-2.3V19h-0.7
	v-8.9H28V19z"/>
</svg>
