<?xml version="1.0" encoding="utf-8"?>
<!-- Generator: Adobe Illustrator 26.5.0, SVG Export Plug-In . SVG Version: 6.00 Build 0)  -->
<svg version="1.1" id="Layer_1" xmlns="http://www.w3.org/2000/svg" xmlns:xlink="http://www.w3.org/1999/xlink" x="0px" y="0px"
	 viewBox="0 0 89.3 31.5" style="enable-background:new 0 0 89.3 31.5;" xml:space="preserve">
<style type="text/css">
	.st0{fill:#231F20;}
	.st1{fill:#00A14B;}
	.st2{fill:#DD524D;}
	.st3{fill:#C05553;}
	.st4{fill:#541D1F;}
	.st5{fill:#FFFFFF;}
	.st6{fill:#E2706D;}
</style>
<path class="st6" d="M83.6,31.5H5.7C2.5,31.5,0,29,0,25.8V5.7C0,2.5,2.5,0,5.7,0h77.9c3.1,0,5.7,2.5,5.7,5.7v20.2
	C89.3,29,86.7,31.5,83.6,31.5z"/>
<path class="st5" d="M37.9,11.4v7h4c0.3,0,0.6,0.1,0.7,0.2c0.2,0.2,0.3,0.3,0.3,0.6c0,0.2-0.1,0.4-0.3,0.6c-0.2,0.1-0.4,0.2-0.7,0.2
	h-4.7c-0.4,0-0.7-0.1-0.9-0.3c-0.2-0.2-0.3-0.5-0.3-0.9v-7.4c0-0.4,0.1-0.7,0.3-0.9c0.2-0.2,0.4-0.3,0.7-0.3c0.3,0,0.5,0.1,0.7,0.3
	C37.8,10.7,37.9,11,37.9,11.4z"/>
<path class="st5" d="M50.7,16.6c0,0.5-0.1,1-0.3,1.5s-0.4,0.8-0.7,1.2c-0.3,0.3-0.7,0.6-1.1,0.7s-0.9,0.3-1.5,0.3
	c-0.5,0-1-0.1-1.5-0.3c-0.4-0.2-0.8-0.4-1.1-0.8c-0.3-0.3-0.6-0.7-0.7-1.2c-0.2-0.4-0.2-0.9-0.2-1.5c0-0.5,0.1-1,0.3-1.5
	c0.2-0.5,0.4-0.8,0.7-1.2c0.3-0.3,0.7-0.6,1.1-0.7c0.4-0.2,0.9-0.3,1.5-0.3c0.5,0,1,0.1,1.5,0.3c0.4,0.2,0.8,0.4,1.1,0.8
	c0.3,0.3,0.6,0.7,0.7,1.2C50.6,15.5,50.7,16,50.7,16.6z M48.9,16.6c0-0.7-0.2-1.3-0.5-1.7c-0.3-0.4-0.8-0.6-1.3-0.6
	c-0.4,0-0.7,0.1-0.9,0.3c-0.3,0.2-0.5,0.5-0.6,0.8c-0.1,0.4-0.2,0.8-0.2,1.2c0,0.5,0.1,0.9,0.2,1.2c0.1,0.4,0.3,0.6,0.6,0.8
	s0.6,0.3,0.9,0.3c0.5,0,1-0.2,1.3-0.6C48.7,17.9,48.9,17.3,48.9,16.6z"/>
<path class="st5" d="M58.7,14.2v5.2c0,0.6-0.1,1.1-0.2,1.5c-0.1,0.4-0.3,0.8-0.6,1.1c-0.3,0.3-0.6,0.5-1.1,0.6
	c-0.5,0.1-1,0.2-1.7,0.2c-0.6,0-1.2-0.1-1.7-0.3c-0.5-0.2-0.9-0.4-1.1-0.7c-0.3-0.3-0.4-0.6-0.4-0.8c0-0.2,0.1-0.4,0.2-0.5
	c0.1-0.1,0.3-0.2,0.5-0.2c0.3,0,0.5,0.1,0.7,0.3c0.1,0.1,0.2,0.2,0.3,0.4s0.2,0.2,0.3,0.3c0.1,0.1,0.3,0.1,0.5,0.2
	c0.2,0,0.4,0.1,0.6,0.1c0.5,0,0.8-0.1,1.1-0.2c0.3-0.1,0.4-0.3,0.5-0.5c0.1-0.2,0.2-0.5,0.2-0.7c0-0.3,0-0.7,0-1.3
	c-0.3,0.4-0.6,0.7-1,0.9c-0.4,0.2-0.8,0.3-1.3,0.3c-0.6,0-1.1-0.2-1.6-0.5c-0.5-0.3-0.8-0.7-1-1.3s-0.4-1.2-0.4-1.9
	c0-0.5,0.1-1,0.2-1.5s0.4-0.8,0.6-1.1c0.3-0.3,0.6-0.5,0.9-0.7s0.7-0.2,1.2-0.2c0.5,0,1,0.1,1.3,0.3c0.4,0.2,0.7,0.5,1,0.9v-0.2
	c0-0.3,0.1-0.6,0.2-0.7s0.4-0.3,0.6-0.3c0.3,0,0.6,0.1,0.7,0.3S58.7,13.8,58.7,14.2z M53.5,16.5c0,0.7,0.2,1.3,0.5,1.7
	c0.3,0.4,0.7,0.6,1.2,0.6c0.3,0,0.6-0.1,0.8-0.2c0.3-0.2,0.5-0.4,0.6-0.7c0.2-0.3,0.3-0.7,0.3-1.2c0-0.7-0.2-1.3-0.5-1.7
	c-0.3-0.4-0.7-0.6-1.3-0.6c-0.5,0-0.9,0.2-1.2,0.6C53.7,15.2,53.5,15.8,53.5,16.5z"/>
<path class="st5" d="M61.5,12.1c-0.3,0-0.5-0.1-0.6-0.2c-0.2-0.2-0.3-0.4-0.3-0.7c0-0.3,0.1-0.5,0.3-0.6c0.2-0.2,0.4-0.2,0.6-0.2
	c0.2,0,0.4,0.1,0.6,0.2c0.2,0.1,0.3,0.4,0.3,0.7c0,0.3-0.1,0.5-0.3,0.6C61.9,12,61.7,12.1,61.5,12.1z M62.4,13.9v5.2
	c0,0.4-0.1,0.6-0.3,0.8c-0.2,0.2-0.4,0.3-0.7,0.3c-0.3,0-0.5-0.1-0.6-0.3c-0.2-0.2-0.2-0.5-0.2-0.8V14c0-0.4,0.1-0.6,0.2-0.8
	c0.2-0.2,0.4-0.3,0.6-0.3c0.3,0,0.5,0.1,0.7,0.3S62.4,13.6,62.4,13.9z"/>
<path class="st5" d="M65.9,13.9v0.2c0.3-0.4,0.7-0.7,1-0.9c0.4-0.2,0.8-0.3,1.3-0.3c0.5,0,0.9,0.1,1.3,0.3c0.4,0.2,0.7,0.5,0.8,0.9
	c0.1,0.2,0.2,0.5,0.2,0.7s0.1,0.6,0.1,1v3.4c0,0.4-0.1,0.6-0.2,0.8c-0.2,0.2-0.4,0.3-0.6,0.3c-0.3,0-0.5-0.1-0.7-0.3
	s-0.3-0.5-0.3-0.8v-3c0-0.6-0.1-1-0.2-1.4c-0.2-0.3-0.5-0.5-1-0.5c-0.3,0-0.6,0.1-0.9,0.3c-0.3,0.2-0.5,0.5-0.6,0.8
	C66,15.6,66,16.1,66,16.9v2.3c0,0.4-0.1,0.6-0.3,0.8c-0.2,0.2-0.4,0.3-0.7,0.3c-0.3,0-0.5-0.1-0.6-0.3s-0.3-0.5-0.3-0.8v-5.2
	c0-0.3,0.1-0.6,0.2-0.8c0.1-0.2,0.4-0.3,0.6-0.3c0.2,0,0.3,0,0.4,0.1c0.1,0.1,0.2,0.2,0.3,0.3C65.8,13.5,65.9,13.7,65.9,13.9z"/>
<path class="st5" d="M25,8.6c-3.5,0-6.4,2.9-6.4,6.4c0,3.5,2.9,6.4,6.4,6.4s6.4-2.9,6.4-6.4C31.4,11.5,28.6,8.6,25,8.6L25,8.6z
	 M25,11.1c1.1,0,2.1,0.9,2.1,2.1c0,1.1-0.9,2.1-2.1,2.1c-1.1,0-2.1-0.9-2.1-2.1C23,12,23.9,11.1,25,11.1L25,11.1z M22.1,20.1
	c0.1,0,0.1,0.1,0.2,0.1C22.2,20.1,22.2,20.1,22.1,20.1z M25,20.7c-1.8,0-3.3-0.8-4.4-2c0.3-1.4,1.5-2.4,3-2.4h2.8c1.5,0,2.7,1,3,2.4
	C28.4,19.9,26.8,20.7,25,20.7z M29.4,18.8C29.4,18.8,29.4,18.8,29.4,18.8C29.4,18.8,29.4,18.8,29.4,18.8z"/>
</svg>
