<?xml version="1.0" encoding="utf-8"?>
<!-- Generator: Adobe Illustrator 26.5.0, SVG Export Plug-In . SVG Version: 6.00 Build 0)  -->
<svg version="1.1" id="Layer_1" xmlns="http://www.w3.org/2000/svg" xmlns:xlink="http://www.w3.org/1999/xlink" x="0px" y="0px"
	 viewBox="0 0 35.5 35.5" style="enable-background:new 0 0 35.5 35.5;" xml:space="preserve">
<style type="text/css">
	.st0{fill:#00A14B;}
	.st1{fill:#231F20;}
	.st2{fill:#DD524D;}
	.st3{fill:#C05553;}
	.st4{fill:#BE5550;}
	.st5{fill:#E2706D;}
	.st6{fill:#C54A45;}
	.st7{fill:#541D1F;}
	.st8{fill:#FFFFFF;}
</style>
<path class="st5" d="M30.3,35.5H5.2c-2.9,0-5.2-2.3-5.2-5.2V5.2C0,2.3,2.3,0,5.2,0h25.2c2.9,0,5.2,2.3,5.2,5.2v25.2
	C35.5,33.2,33.2,35.5,30.3,35.5z"/>
<g>
	<path class="st8" d="M18.7,12.7h-1.9c-0.8,0-1.5-0.7-1.5-1.5V9.3c0-0.8,0.7-1.5,1.5-1.5h1.9c0.8,0,1.5,0.7,1.5,1.5v1.9
		C20.2,12,19.5,12.7,18.7,12.7z"/>
	<path class="st8" d="M18.7,20.2h-1.9c-0.8,0-1.5-0.7-1.5-1.5v-1.9c0-0.8,0.7-1.5,1.5-1.5h1.9c0.8,0,1.5,0.7,1.5,1.5v1.9
		C20.2,19.5,19.5,20.2,18.7,20.2z"/>
	<path class="st8" d="M18.7,27.7h-1.9c-0.8,0-1.5-0.7-1.5-1.5v-1.9c0-0.8,0.7-1.5,1.5-1.5h1.9c0.8,0,1.5,0.7,1.5,1.5v1.9
		C20.2,27.1,19.5,27.7,18.7,27.7z"/>
</g>
</svg>
